# xmcd
#
# Track frame offsets:
# 150
# 16372
# 30210
# 45222
# 58027
# 75150
# 92080
# 105057
# 120152
# 135657
# 147767
# 162795
# 177480
# 198275
# 211600
# 222422
# 237207
# 253830
# 269110
# 282570
#
# Disc length: 4039 seconds
#
#
# Revision: 0
# Processed by: cddbd v1.5.2PL0 Copyright (c) Steve Scherf et al.
# Submitted via: FreeRIP 2.951 
#
DISCID=060fc514
DTITLE=Som Zoom - O Melhor do Forró
DYEAR=2007
DGENRE=Forró
TTITLE0=Mastruz com Leite - Lição de Vida
TTITLE1=Catuaba com Amendoim - Meu Cenário
TTITLE2=Capital do Sol - Te Amar, Te Amar
TTITLE3=Mel com Terra - Menino
TTITLE4=Luizinho de Irauçuba - Mulher sem Dono
TTITLE5=Weslwy dos Teclados - Meu Esporte é Vaquejada/Viajante ForrozeiroSede de Paixão
TTITLE6=Cavalo de Pau - Me Deixa Louca
TTITLE7=Calango Aceso - Mainha
TTITLE8=Tatuagem - Me Faz Mulher
TTITLE9=Pinduca - O Caçador
TTITLE10=Petrúcio Amorim - Minha Home Page
TTITLE11=Banda Styllus - Inconseqüência
TTITLE12=Brasas do Forró - Quando Penso em Você
TTITLE13=Banda Aquárius - Procura-se Meu Marido
TTITLE14=Rita de Cássia - Prá Viver Eternamente
TTITLE15=Rabo de Saia - A Professora e a Palmatória
TTITLE16=Amazan - O Biriteiro
TTITLE17=Novinho da Paraíba - Você me Viu Chorar
TTITLE18=Balaio de Gatos - Pirada
TTITLE19=Patativa do Passaré - Cabaré Globvalizado
EXTD=
EXTT0=
EXTT1=
EXTT2=
EXTT3=
EXTT4=
EXTT5=
EXTT6=
EXTT7=
EXTT8=
EXTT9=
EXTT10=
EXTT11=
EXTT12=
EXTT13=
EXTT14=
EXTT15=
EXTT16=
EXTT17=
EXTT18=
EXTT19=
PLAYORDER=
